<?xml version="1.0" standalone="no"?>
<!DOCTYPE svg PUBLIC "-//W3C//DTD SVG 20010904//EN"
 "http://www.w3.org/TR/2001/REC-SVG-20010904/DTD/svg10.dtd">
<svg version="1.0" xmlns="http://www.w3.org/2000/svg"
 width="520.000000pt" height="520.000000pt" viewBox="0 0 520.000000 520.000000"
 preserveAspectRatio="xMidYMid meet">

<g transform="translate(0.000000,520.000000) scale(0.100000,-0.100000)"
fill="#000000" stroke="none">
<path d="M777 5074 c-165 -36 -309 -110 -429 -223 -96 -90 -156 -171 -207
-283 -83 -178 -75 -3 -79 -1918 -2 -1240 0 -1725 8 -1778 31 -198 123 -368
278 -513 127 -119 298 -203 467 -229 48 -7 618 -10 1835 -8 1998 4 1802 -5
1995 88 251 120 419 326 488 597 l22 88 0 1710 0 1710 -23 90 c-66 262 -235
471 -478 591 -205 101 -36 94 -2054 93 -1503 -1 -1765 -3 -1823 -15z m2047
-1206 c306 -84 498 -272 577 -563 19 -67 22 -107 22 -245 0 -192 -16 -269 -85
-410 -34 -69 -59 -103 -138 -181 -82 -83 -108 -103 -190 -142 -189 -92 -296
-107 -777 -107 l-363 0 0 -450 0 -450 -245 0 -245 0 0 1290 0 1291 673 -3 672
-4 99 -26z m1006 -2228 l0 -330 -335 0 -335 0 0 330 0 330 335 0 335 0 0 -330z"/>
<path d="M1870 3064 l0 -415 388 3 c376 3 389 4 443 26 105 42 185 133 215
244 17 67 18 208 0 273 -40 152 -151 248 -316 274 -36 6 -215 11 -397 11
l-333 0 0 -416z"/>
</g>
</svg>
